<?xml version="1.0" encoding="iso-8859-1"?>
<!-- Generator: Adobe Illustrator 19.0.0, SVG Export Plug-In . SVG Version: 6.00 Build 0)  -->
<svg version="1.1" id="Capa_1" xmlns="http://www.w3.org/2000/svg" xmlns:xlink="http://www.w3.org/1999/xlink" x="0px" y="0px"
	 viewBox="0 0 512 512" style="enable-background:new 0 0 512 512;" xml:space="preserve">
<g>
	<g>
		<path d="M452.923,0c-5.437,0-9.846,4.408-9.846,9.846v247.347l-29.161-7.29c-13.396-3.346-27.394-2.806-40.472,1.561
			l-24.495,8.162c-9.53,3.175-19.723,3.565-29.475,1.128l-45.903-11.471c-11.494-2.872-23.645-2.873-35.14,0l-45.902,11.471
			c-9.754,2.436-19.946,2.046-29.475-1.128l-24.49-8.16c-13.084-4.369-27.082-4.908-40.48-1.562l-29.159,7.289v-50.424h29.538
			c5.437,0,9.846-4.408,9.846-9.846c0-5.438-4.409-9.846-9.846-9.846H68.923v-19.692h49.231c5.437,0,9.846-4.408,9.846-9.846
			c0-5.438-4.409-9.846-9.846-9.846H68.923V128h29.538c5.437,0,9.846-4.408,9.846-9.846c0-5.438-4.409-9.846-9.846-9.846H68.923
			V88.615h49.231c5.437,0,9.846-4.408,9.846-9.846s-4.409-9.846-9.846-9.846H68.923V49.231h29.538c5.437,0,9.846-4.408,9.846-9.846
			c0-5.438-4.409-9.846-9.846-9.846H68.923V9.846C68.923,4.408,64.514,0,59.077,0c-5.437,0-9.846,4.408-9.846,9.846v259.958v172.948
			c0,3.873,0.335,7.667,0.949,11.368c0.043,0.358,0.108,0.709,0.189,1.055C56.241,487.448,84.537,512,118.479,512h275.042
			c38.183,0,69.248-31.065,69.248-69.248V269.804V9.846C462.769,4.408,458.36,0,452.923,0z M443.077,442.752
			c0,27.325-22.231,49.556-49.556,49.556H118.479c-20.203,0-37.61-12.159-45.317-29.538h44.992c5.437,0,9.846-4.408,9.846-9.846
			s-4.409-9.846-9.846-9.846H68.931c-0.001-0.109-0.008-0.216-0.008-0.325v-165.26l33.933-8.483
			c9.757-2.438,19.946-2.045,29.476,1.137l24.497,8.163c13.088,4.358,27.082,4.896,40.473,1.55l45.903-11.471
			c8.371-2.092,17.219-2.092,25.59,0l45.904,11.471c13.39,3.346,27.385,2.81,40.473-1.55l24.502-8.164
			c9.522-3.179,19.714-3.572,29.468-1.136l33.936,8.483V442.752z"/>
	</g>
</g>
<g>
	<g>
		<path d="M157.341,451.003c-0.117-0.63-0.315-1.25-0.561-1.841c-0.246-0.601-0.551-1.172-0.906-1.703
			c-0.353-0.542-0.767-1.044-1.221-1.497c-0.453-0.453-0.955-0.866-1.497-1.221c-0.532-0.354-1.103-0.66-1.703-0.906
			c-0.591-0.246-1.21-0.443-1.84-0.561c-3.2-0.65-6.597,0.404-8.882,2.688c-0.453,0.453-0.866,0.955-1.221,1.497
			c-0.364,0.532-0.66,1.103-0.906,1.703c-0.246,0.591-0.443,1.211-0.56,1.841c-0.129,0.63-0.197,1.28-0.197,1.92
			s0.068,1.29,0.197,1.92c0.117,0.63,0.314,1.25,0.56,1.851c0.246,0.591,0.542,1.162,0.906,1.694
			c0.354,0.542,0.768,1.044,1.221,1.497c0.453,0.453,0.955,0.866,1.498,1.221c0.532,0.364,1.102,0.66,1.702,0.906
			c0.592,0.246,1.211,0.443,1.841,0.561c0.63,0.128,1.28,0.197,1.92,0.197c0.639,0,1.29-0.069,1.92-0.197
			c0.63-0.118,1.25-0.315,1.84-0.561c0.601-0.246,1.172-0.542,1.703-0.906c0.542-0.354,1.044-0.768,1.497-1.221
			c1.831-1.831,2.886-4.372,2.886-6.961C157.537,452.283,157.469,451.633,157.341,451.003z"/>
	</g>
</g>
<g>
</g>
<g>
</g>
<g>
</g>
<g>
</g>
<g>
</g>
<g>
</g>
<g>
</g>
<g>
</g>
<g>
</g>
<g>
</g>
<g>
</g>
<g>
</g>
<g>
</g>
<g>
</g>
<g>
</g>
</svg>
